<?xml version="1.0" encoding="UTF-8" standalone="no"?>
<svg
   viewBox="0 0 442.55203 196.43895"
   version="1.1"
   id="svg1"
   sodipodi:docname="logo.svg"
   inkscape:version="1.3.2 (091e20e, 2023-11-25, custom)"
   inkscape:export-filename="logo.svg"
   inkscape:export-xdpi="96"
   inkscape:export-ydpi="96"
   width="442.55203"
   height="196.43895"
   xmlns:inkscape="http://www.inkscape.org/namespaces/inkscape"
   xmlns:sodipodi="http://sodipodi.sourceforge.net/DTD/sodipodi-0.dtd"
   xmlns="http://www.w3.org/2000/svg"
   xmlns:svg="http://www.w3.org/2000/svg">
  <defs
     id="defs1">
    <filter
       y="-0.064429734"
       height="1.1288595"
       inkscape:label="Rough and Dilate"
       inkscape:menu="Distort"
       inkscape:menu-tooltip="Create a turbulent contour around"
       style="color-interpolation-filters:sRGB"
       id="filter2"
       x="-0.057175772"
       width="1.1143515">
      <feMorphology
         radius="7"
         operator="dilate"
         result="result8"
         in="SourceGraphic"
         id="feMorphology1" />
      <feComposite
         in2="result8"
         result="result10"
         in="SourceGraphic"
         operator="arithmetic"
         k1="0.5"
         k3="0.5"
         id="feComposite1"
         k2="0"
         k4="0" />
      <feTurbulence
         result="result11"
         type="fractalNoise"
         numOctaves="3"
         baseFrequency="0.07"
         id="feTurbulence1" />
      <feDisplacementMap
         result="result12"
         in2="result11"
         in="result10"
         xChannelSelector="R"
         scale="10"
         id="feDisplacementMap1"
         yChannelSelector="A" />
      <feComposite
         operator="arithmetic"
         result="result13"
         in="SourceGraphic"
         in2="result12"
         k1="0.25"
         k2="0.25"
         k3="0.75"
         id="feComposite2"
         k4="0" />
    </filter>
    <filter
       y="-0.10885947"
       height="1.2177189"
       inkscape:label="Rough and Dilate"
       inkscape:menu="Distort"
       inkscape:menu-tooltip="Create a turbulent contour around"
       style="color-interpolation-filters:sRGB"
       id="filter25"
       x="-0.029727698"
       width="1.0594554">
      <feMorphology
         radius="7"
         operator="dilate"
         result="result8"
         in="SourceGraphic"
         id="feMorphology24" />
      <feComposite
         in2="result8"
         result="result10"
         in="SourceGraphic"
         operator="arithmetic"
         k1="0.5"
         k3="0.5"
         id="feComposite24"
         k2="0"
         k4="0" />
      <feTurbulence
         result="result11"
         type="fractalNoise"
         numOctaves="3"
         baseFrequency="0.07"
         id="feTurbulence24" />
      <feDisplacementMap
         result="result12"
         in2="result11"
         in="result10"
         xChannelSelector="R"
         scale="10"
         id="feDisplacementMap24"
         yChannelSelector="A" />
      <feComposite
         operator="arithmetic"
         result="result13"
         in="SourceGraphic"
         in2="result12"
         k1="0.25"
         k2="0.25"
         k3="0.75"
         id="feComposite25"
         k4="0" />
    </filter>
  </defs>
  <sodipodi:namedview
     id="namedview1"
     pagecolor="#ffffff"
     bordercolor="#000000"
     borderopacity="0.25"
     inkscape:showpageshadow="2"
     inkscape:pageopacity="0.0"
     inkscape:pagecheckerboard="0"
     inkscape:deskcolor="#d1d1d1"
     inkscape:zoom="0.54345024"
     inkscape:cx="-12.880664"
     inkscape:cy="269.5739"
     inkscape:window-width="1920"
     inkscape:window-height="1001"
     inkscape:window-x="-9"
     inkscape:window-y="-9"
     inkscape:window-maximized="1"
     inkscape:current-layer="svg1" />
  <!--!Font Awesome Free 6.5.1 by @fontawesome - https://fontawesome.com License - https://fontawesome.com/license/free Copyright 2024 Fonticons, Inc.-->
  <g
     id="g2"
     transform="matrix(1.6364212,0,0,1.5850631,-392.15183,-161.12666)">
    <g
       id="g25"
       transform="translate(-0.65057179,-4.5540025)">
      <path
         fill="#a97e5b"
         d="m 301.88086,144.4066 a 21.605203,20.37103 0 1 0 -43.2104,0 21.605203,20.37103 0 1 0 43.2104,0 z m 9.9924,6.79034 c -3.26328,13.60191 -16.18139,23.76621 -31.59761,23.76621 -17.8918,0 -32.4078,-13.68678 -32.4078,-30.55655 0,-16.86975 14.516,-30.55654 32.4078,-30.55654 15.41622,0 28.33433,10.16429 31.59761,23.7662 h 16.15889 c 1.98048,-2.07954 4.86117,-3.39517 8.05694,-3.39517 h 23.40563 c 5.96395,0 10.80261,4.56226 10.80261,10.18551 0,5.62326 -4.83866,10.18551 -10.80261,10.18551 h -23.40563 c -3.19577,0 -6.07646,-1.31562 -8.05694,-3.39517 z m -31.59761,-20.37102 a 14.403469,13.580687 0 1 1 0,27.16137 14.403469,13.580687 0 1 1 0,-27.16137 z m 57.61388,33.95172 c 2.99322,0 5.40129,2.27051 5.40129,5.09275 v 1.69758 h 21.60522 c 2.99321,0 5.40129,2.27053 5.40129,5.09277 0,2.82223 -2.40808,5.09275 -5.40129,5.09275 h -54.01302 c -2.99322,0 -5.4013,-2.27052 -5.4013,-5.09275 0,-2.82224 2.40808,-5.09277 5.4013,-5.09277 h 21.60521 v -1.69758 c 0,-2.82224 2.40808,-5.09275 5.4013,-5.09275 z m -25.20608,47.53239 v -23.76619 h 50.41215 v 23.76619 c 0,5.62325 -4.83867,10.18552 -10.80261,10.18552 h -28.80693 c -5.96394,0 -10.80261,-4.56227 -10.80261,-10.18552 z m -54.01299,-30.55654 h 18.00433 3.60086 7.20174 c 5.96393,0 10.8026,4.56226 10.8026,10.18552 0,5.62325 -4.83867,10.18551 -10.8026,10.18551 h -3.60087 c 0,3.75592 -3.21827,6.79034 -7.20173,6.79034 h -14.40347 c -3.98347,0 -7.20173,-3.03442 -7.20173,-6.79034 v -16.97585 c 0,-1.86736 1.62038,-3.39518 3.60087,-3.39518 z m 28.80693,13.58069 c 1.98048,0 3.60087,-1.52783 3.60087,-3.39517 0,-1.86735 -1.62039,-3.39517 -3.60087,-3.39517 h -3.60087 v 6.79034 z m -34.20824,16.97585 h 39.60954 c 2.99322,0 5.4013,2.27053 5.4013,5.09276 0,2.82224 -2.40808,5.09276 -5.4013,5.09276 h -39.60954 c -2.99322,0 -5.4013,-2.27052 -5.4013,-5.09276 0,-2.82223 2.40808,-5.09276 5.4013,-5.09276 z"
         id="path1"
         style="fill:#cc6621;fill-opacity:0.411017;stroke-width:0.218532;filter:url(#filter2)"
         transform="rotate(-0.54231544,309.0827,168.17292)" />
      <text
         xml:space="preserve"
         style="font-size:93.8781px;font-family:'18thCentury';-inkscape-font-specification:'18thCentury';fill:#000000;fill-opacity:1;stroke:#faf1d3;stroke-width:0.232846;stroke-linecap:round;stroke-linejoin:bevel;stroke-dasharray:0.572278, 0.286139;stroke-opacity:0.792593;paint-order:fill markers stroke;filter:url(#filter25)"
         x="353.95184"
         y="168.32314"
         id="text1"
         transform="matrix(0.79621195,0,0,0.98724043,31.886226,30.746264)"><tspan
           sodipodi:role="line"
           id="tspan1"
           x="353.95184"
           y="168.32314"
           style="fill:#000000;fill-opacity:1;stroke-width:0.232846">Recipes</tspan></text>
    </g>
  </g>
</svg>
